<?xml version="1.0" encoding="utf-8"?>
<!-- Generator: Adobe Illustrator 24.1.2, SVG Export Plug-In . SVG Version: 6.00 Build 0)  -->
<svg version="1.1" id="Layer_1" xmlns="http://www.w3.org/2000/svg" xmlns:xlink="http://www.w3.org/1999/xlink" x="0px" y="0px"
	 viewBox="0 0 340.76 266.43" style="enable-background:new 0 0 340.76 266.43;" xml:space="preserve">
<style type="text/css">
	.st0{fill:#EB9393;}
	.st1{fill:#3E6A33;}
	.st2{fill:#0A2C1C;}
</style>
<g>
	<g>
		<circle class="st0" cx="197.87" cy="61.62" r="53.44"/>
		<g>
			<polygon class="st1" points="129.74,0 30.44,158.04 229.04,158.04 			"/>
			<path class="st2" d="M147.41,158.04C175.18,109.75,177.28,82.9,129.74,0l62.37,99.26L147.41,158.04z"/>
		</g>
		<g>
			<polygon class="st2" points="220.88,61.62 147.43,158.04 294.32,158.04 			"/>
			<g>
				<polygon class="st1" points="192.77,144.26 220.88,61.62 147.43,158.04 				"/>
				<polygon class="st1" points="220.88,61.62 248.98,144.26 294.32,158.04 				"/>
			</g>
		</g>
	</g>
	<g>
		<path class="st2" d="M107.43,228.43h-3.12v-12.65H90.15v12.65h-3.12v-26.87h3.12V213h14.15v-11.43h3.12V228.43z"/>
		<path class="st2" d="M126.73,228.43l-0.61-2.87h-0.15c-1,1.26-2.01,2.12-3.01,2.56c-1,0.45-2.25,0.67-3.74,0.67
			c-2,0-3.56-0.51-4.69-1.54c-1.13-1.03-1.7-2.49-1.7-4.39c0-4.07,3.25-6.2,9.76-6.4l3.42-0.11v-1.25c0-1.58-0.34-2.75-1.02-3.5
			c-0.68-0.75-1.77-1.13-3.26-1.13c-1.68,0-3.58,0.51-5.7,1.54l-0.94-2.33c0.99-0.54,2.08-0.96,3.26-1.27
			c1.18-0.31,2.37-0.46,3.56-0.46c2.4,0,4.18,0.53,5.34,1.6c1.16,1.07,1.74,2.78,1.74,5.13v13.75H126.73z M119.84,226.28
			c1.9,0,3.39-0.52,4.47-1.56c1.08-1.04,1.63-2.5,1.63-4.37v-1.82l-3.05,0.13c-2.43,0.09-4.18,0.46-5.25,1.13
			c-1.07,0.67-1.61,1.71-1.61,3.12c0,1.1,0.33,1.94,1,2.52S118.64,226.28,119.84,226.28z"/>
		<path class="st2" d="M138.15,208.29v13.07c0,1.64,0.37,2.87,1.12,3.68c0.75,0.81,1.92,1.21,3.51,1.21c2.11,0,3.65-0.58,4.62-1.73
			c0.97-1.15,1.46-3.03,1.46-5.64v-10.59h3.05v20.14h-2.52l-0.44-2.7h-0.16c-0.63,0.99-1.49,1.75-2.6,2.28
			c-1.11,0.53-2.37,0.79-3.8,0.79c-2.45,0-4.29-0.58-5.5-1.75c-1.22-1.16-1.83-3.03-1.83-5.59v-13.18H138.15z"/>
		<path class="st2" d="M164.89,226.28c0.54,0,1.06-0.04,1.56-0.12c0.5-0.08,0.9-0.16,1.19-0.25v2.33c-0.33,0.16-0.82,0.29-1.46,0.4
			s-1.22,0.16-1.74,0.16c-3.9,0-5.84-2.05-5.84-6.16v-11.98h-2.89v-1.47l2.89-1.27l1.29-4.3h1.77v4.67h5.84v2.37h-5.84v11.86
			c0,1.21,0.29,2.14,0.86,2.79C163.09,225.96,163.88,226.28,164.89,226.28z"/>
		<path class="st2" d="M180.18,228.8c-2.98,0-5.33-0.91-7.05-2.72c-1.72-1.81-2.58-4.33-2.58-7.55c0-3.25,0.8-5.83,2.4-7.74
			c1.6-1.91,3.75-2.87,6.44-2.87c2.52,0,4.52,0.83,5.99,2.49c1.47,1.66,2.21,3.85,2.21,6.57v1.93h-13.88
			c0.06,2.37,0.66,4.16,1.79,5.39c1.13,1.23,2.73,1.84,4.79,1.84c2.17,0,4.31-0.45,6.43-1.36v2.72c-1.08,0.47-2.1,0.8-3.06,1
			C182.7,228.7,181.54,228.8,180.18,228.8z M179.35,210.48c-1.62,0-2.91,0.53-3.87,1.58s-1.53,2.51-1.7,4.37h10.53
			c0-1.92-0.43-3.4-1.29-4.42C182.17,210.99,180.95,210.48,179.35,210.48z"/>
		<path class="st2" d="M205.78,222.94c0,1.88-0.7,3.32-2.09,4.34c-1.4,1.02-3.36,1.53-5.88,1.53c-2.67,0-4.75-0.42-6.25-1.27v-2.83
			c0.97,0.49,2.01,0.88,3.12,1.16c1.11,0.28,2.18,0.42,3.21,0.42c1.59,0,2.82-0.25,3.68-0.76c0.86-0.51,1.29-1.28,1.29-2.33
			c0-0.78-0.34-1.45-1.02-2.01c-0.68-0.56-2.01-1.22-3.98-1.98c-1.88-0.7-3.21-1.31-4-1.83c-0.79-0.52-1.38-1.11-1.77-1.77
			c-0.39-0.66-0.58-1.45-0.58-2.37c0-1.64,0.67-2.94,2-3.89s3.17-1.42,5.5-1.42c2.17,0,4.29,0.44,6.36,1.32l-1.08,2.48
			c-2.02-0.83-3.85-1.25-5.5-1.25c-1.45,0-2.54,0.23-3.27,0.68c-0.74,0.45-1.1,1.08-1.1,1.88c0,0.54,0.14,1,0.41,1.38
			c0.28,0.38,0.72,0.74,1.33,1.08c0.61,0.34,1.79,0.84,3.53,1.49c2.39,0.87,4,1.75,4.84,2.63
			C205.36,220.5,205.78,221.6,205.78,222.94z"/>
		<path class="st2" d="M232.8,214.36h9.13v13.07c-1.42,0.45-2.87,0.8-4.34,1.03c-1.47,0.23-3.17,0.35-5.11,0.35
			c-4.07,0-7.24-1.21-9.5-3.63c-2.27-2.42-3.4-5.81-3.4-10.17c0-2.79,0.56-5.24,1.68-7.34c1.12-2.1,2.74-3.71,4.84-4.82
			c2.11-1.11,4.58-1.66,7.41-1.66c2.87,0,5.54,0.53,8.01,1.58l-1.21,2.76c-2.43-1.03-4.76-1.54-7-1.54c-3.27,0-5.83,0.97-7.67,2.92
			c-1.84,1.95-2.76,4.65-2.76,8.11c0,3.63,0.89,6.38,2.66,8.25c1.77,1.87,4.37,2.81,7.8,2.81c1.86,0,3.68-0.21,5.46-0.64v-8.27
			h-6.01V214.36z"/>
		<path class="st2" d="M265.32,218.34c0,3.28-0.83,5.85-2.48,7.69c-1.65,1.84-3.94,2.77-6.86,2.77c-1.8,0-3.4-0.42-4.8-1.27
			c-1.4-0.85-2.48-2.06-3.24-3.64c-0.76-1.58-1.14-3.43-1.14-5.55c0-3.28,0.82-5.84,2.46-7.67c1.64-1.83,3.92-2.75,6.84-2.75
			c2.82,0,5.06,0.94,6.72,2.81C264.48,212.61,265.32,215.15,265.32,218.34z M249.97,218.34c0,2.57,0.52,4.53,1.54,5.88
			c1.03,1.35,2.54,2.02,4.54,2.02c2,0,3.51-0.67,4.55-2.01c1.04-1.34,1.55-3.31,1.55-5.89c0-2.56-0.52-4.51-1.55-5.84
			c-1.04-1.33-2.56-1.99-4.59-1.99c-2,0-3.5,0.66-4.52,1.97C250.48,213.79,249.97,215.75,249.97,218.34z"/>
		<path class="st2" d="M279.85,207.92c0.89,0,1.7,0.07,2.41,0.22l-0.42,2.83c-0.83-0.18-1.57-0.28-2.21-0.28
			c-1.63,0-3.02,0.66-4.18,1.98c-1.16,1.32-1.74,2.97-1.74,4.94v10.81h-3.05v-20.14h2.52l0.35,3.73h0.15
			c0.75-1.31,1.65-2.32,2.7-3.03C277.43,208.28,278.59,207.92,279.85,207.92z"/>
		<path class="st2" d="M302.52,208.29v1.93l-3.73,0.44c0.34,0.43,0.65,0.99,0.92,1.68c0.27,0.69,0.4,1.47,0.4,2.34
			c0,1.97-0.67,3.55-2.02,4.72c-1.35,1.18-3.2,1.76-5.55,1.76c-0.6,0-1.16-0.05-1.69-0.15c-1.3,0.69-1.95,1.55-1.95,2.59
			c0,0.55,0.23,0.96,0.68,1.22c0.45,0.26,1.23,0.4,2.33,0.4h3.57c2.18,0,3.86,0.46,5.03,1.38c1.17,0.92,1.76,2.25,1.76,4.01
			c0,2.23-0.89,3.93-2.68,5.1c-1.79,1.17-4.4,1.76-7.83,1.76c-2.64,0-4.67-0.49-6.09-1.47c-1.43-0.98-2.14-2.37-2.14-4.15
			c0-1.23,0.39-2.29,1.18-3.18c0.78-0.89,1.89-1.5,3.31-1.82c-0.51-0.23-0.95-0.59-1.3-1.08c-0.35-0.49-0.52-1.06-0.52-1.71
			c0-0.74,0.19-1.38,0.59-1.93c0.39-0.55,1.01-1.08,1.86-1.6c-1.04-0.43-1.89-1.16-2.55-2.19c-0.66-1.03-0.98-2.21-0.98-3.53
			c0-2.21,0.66-3.91,1.98-5.1c1.32-1.19,3.2-1.79,5.62-1.79c1.05,0,2,0.12,2.85,0.37H302.52z M286.45,231.82
			c0,1.09,0.46,1.92,1.38,2.48c0.92,0.56,2.24,0.85,3.95,0.85c2.56,0,4.46-0.38,5.69-1.15c1.23-0.77,1.85-1.8,1.85-3.12
			c0-1.09-0.34-1.85-1.01-2.27c-0.68-0.42-1.94-0.63-3.81-0.63h-3.66c-1.39,0-2.46,0.33-3.24,0.99
			C286.84,229.63,286.45,230.58,286.45,231.82z M288.11,214.74c0,1.41,0.4,2.48,1.19,3.2c0.8,0.72,1.91,1.08,3.33,1.08
			c2.98,0,4.47-1.45,4.47-4.34c0-3.03-1.51-4.54-4.52-4.54c-1.43,0-2.54,0.39-3.31,1.16C288.49,212.08,288.11,213.22,288.11,214.74z
			"/>
		<path class="st2" d="M315.16,228.8c-2.98,0-5.33-0.91-7.05-2.72c-1.72-1.81-2.58-4.33-2.58-7.55c0-3.25,0.8-5.83,2.4-7.74
			c1.6-1.91,3.75-2.87,6.44-2.87c2.52,0,4.52,0.83,5.99,2.49c1.47,1.66,2.21,3.85,2.21,6.57v1.93h-13.88
			c0.06,2.37,0.66,4.16,1.79,5.39c1.13,1.23,2.73,1.84,4.79,1.84c2.17,0,4.31-0.45,6.43-1.36v2.72c-1.08,0.47-2.1,0.8-3.06,1
			C317.68,228.7,316.52,228.8,315.16,228.8z M314.34,210.48c-1.62,0-2.91,0.53-3.87,1.58s-1.53,2.51-1.7,4.37h10.53
			c0-1.92-0.43-3.4-1.29-4.42C317.15,210.99,315.93,210.48,314.34,210.48z"/>
		<path class="st2" d="M340.76,222.94c0,1.88-0.7,3.32-2.09,4.34c-1.4,1.02-3.36,1.53-5.88,1.53c-2.67,0-4.75-0.42-6.25-1.27v-2.83
			c0.97,0.49,2.01,0.88,3.12,1.16c1.11,0.28,2.18,0.42,3.21,0.42c1.59,0,2.82-0.25,3.68-0.76c0.86-0.51,1.29-1.28,1.29-2.33
			c0-0.78-0.34-1.45-1.02-2.01c-0.68-0.56-2.01-1.22-3.98-1.98c-1.88-0.7-3.21-1.31-4-1.83s-1.38-1.11-1.77-1.77
			c-0.39-0.66-0.58-1.45-0.58-2.37c0-1.64,0.67-2.94,2-3.89c1.34-0.95,3.17-1.42,5.5-1.42c2.17,0,4.29,0.44,6.36,1.32l-1.08,2.48
			c-2.02-0.83-3.85-1.25-5.5-1.25c-1.45,0-2.54,0.23-3.27,0.68c-0.74,0.45-1.1,1.08-1.1,1.88c0,0.54,0.14,1,0.41,1.38
			c0.28,0.38,0.72,0.74,1.33,1.08c0.61,0.34,1.79,0.84,3.53,1.49c2.39,0.87,4,1.75,4.84,2.63
			C340.34,220.5,340.76,221.6,340.76,222.94z"/>
	</g>
	<g>
		<path class="st2" d="M45.62,175.31c0,2.72-0.93,4.81-2.79,6.28c-1.86,1.46-4.51,2.2-7.97,2.2h-3.16v10.57h-3.12v-26.87h6.97
			C42.26,167.48,45.62,170.09,45.62,175.31z M31.71,181.1h2.81c2.77,0,4.77-0.45,6.01-1.34c1.24-0.89,1.86-2.33,1.86-4.3
			c0-1.78-0.58-3.1-1.75-3.97c-1.16-0.87-2.98-1.3-5.44-1.3h-3.49V181.1z"/>
		<path class="st2" d="M63.17,194.35l-0.61-2.87h-0.15c-1,1.26-2.01,2.12-3.01,2.56c-1,0.45-2.25,0.67-3.74,0.67
			c-2,0-3.56-0.51-4.7-1.54c-1.13-1.03-1.7-2.49-1.7-4.39c0-4.07,3.25-6.2,9.76-6.4l3.42-0.11v-1.25c0-1.58-0.34-2.75-1.02-3.5
			c-0.68-0.75-1.77-1.13-3.26-1.13c-1.68,0-3.58,0.51-5.7,1.54l-0.94-2.33c0.99-0.54,2.08-0.96,3.26-1.27
			c1.18-0.31,2.37-0.46,3.56-0.46c2.4,0,4.18,0.53,5.34,1.6c1.16,1.07,1.74,2.78,1.74,5.13v13.75H63.17z M56.28,192.2
			c1.9,0,3.39-0.52,4.48-1.56c1.08-1.04,1.63-2.5,1.63-4.37v-1.82l-3.05,0.13c-2.43,0.09-4.18,0.46-5.25,1.13
			c-1.07,0.67-1.61,1.71-1.61,3.12c0,1.1,0.33,1.94,1,2.52S55.08,192.2,56.28,192.2z"/>
		<path class="st2" d="M80.91,173.84c0.89,0,1.7,0.07,2.41,0.22l-0.42,2.83c-0.83-0.18-1.57-0.28-2.21-0.28
			c-1.63,0-3.02,0.66-4.18,1.98c-1.16,1.32-1.74,2.97-1.74,4.94v10.81h-3.05v-20.14h2.52l0.35,3.73h0.15
			c0.75-1.31,1.65-2.32,2.7-3.03C78.49,174.19,79.65,173.84,80.91,173.84z"/>
		<path class="st2" d="M95.14,194.72c-2.92,0-5.17-0.9-6.77-2.69c-1.6-1.79-2.4-4.33-2.4-7.62c0-3.37,0.81-5.97,2.44-7.81
			c1.62-1.84,3.94-2.76,6.94-2.76c0.97,0,1.94,0.1,2.9,0.31c0.97,0.21,1.73,0.45,2.28,0.74l-0.94,2.59
			c-0.67-0.27-1.41-0.49-2.21-0.67c-0.8-0.18-1.5-0.27-2.11-0.27c-4.09,0-6.14,2.61-6.14,7.83c0,2.48,0.5,4.37,1.5,5.7
			c1,1.32,2.48,1.98,4.44,1.98c1.68,0,3.4-0.36,5.16-1.08v2.7C98.88,194.37,97.18,194.72,95.14,194.72z"/>
		<path class="st2" d="M128.57,194.35v-13.03c0-1.64-0.37-2.87-1.12-3.68c-0.75-0.81-1.92-1.21-3.51-1.21
			c-2.11,0-3.65,0.57-4.63,1.71c-0.98,1.14-1.47,3.02-1.47,5.64v10.57h-3.05v-20.14h2.48l0.5,2.76h0.15
			c0.63-0.99,1.5-1.76,2.63-2.31c1.13-0.55,2.38-0.82,3.77-0.82c2.43,0,4.25,0.59,5.48,1.76c1.23,1.17,1.84,3.04,1.84,5.62v13.14
			H128.57z"/>
		<path class="st2" d="M150.28,194.35l-0.61-2.87h-0.15c-1,1.26-2.01,2.12-3.01,2.56c-1,0.45-2.25,0.67-3.74,0.67
			c-2,0-3.56-0.51-4.7-1.54c-1.13-1.03-1.7-2.49-1.7-4.39c0-4.07,3.25-6.2,9.76-6.4l3.42-0.11v-1.25c0-1.58-0.34-2.75-1.02-3.5
			c-0.68-0.75-1.77-1.13-3.26-1.13c-1.68,0-3.58,0.51-5.7,1.54l-0.94-2.33c0.99-0.54,2.08-0.96,3.26-1.27
			c1.18-0.31,2.37-0.46,3.56-0.46c2.4,0,4.18,0.53,5.34,1.6c1.16,1.07,1.74,2.78,1.74,5.13v13.75H150.28z M143.38,192.2
			c1.9,0,3.39-0.52,4.48-1.56c1.08-1.04,1.63-2.5,1.63-4.37v-1.82l-3.05,0.13c-2.43,0.09-4.18,0.46-5.25,1.13
			c-1.07,0.67-1.61,1.71-1.61,3.12c0,1.1,0.33,1.94,1,2.52C141.25,191.91,142.18,192.2,143.38,192.2z"/>
		<path class="st2" d="M165.33,192.2c0.54,0,1.06-0.04,1.56-0.12c0.5-0.08,0.9-0.16,1.19-0.25v2.33c-0.33,0.16-0.82,0.29-1.46,0.4
			s-1.22,0.16-1.74,0.16c-3.9,0-5.84-2.05-5.84-6.16v-11.98h-2.89v-1.47l2.89-1.27l1.29-4.3h1.77v4.67h5.84v2.37h-5.84v11.86
			c0,1.21,0.29,2.14,0.86,2.79C163.53,191.87,164.32,192.2,165.33,192.2z"/>
		<path class="st2" d="M171.86,168.75c0-0.7,0.17-1.21,0.51-1.53c0.34-0.32,0.77-0.49,1.29-0.49c0.49,0,0.91,0.17,1.27,0.5
			c0.36,0.33,0.53,0.84,0.53,1.53s-0.18,1.2-0.53,1.53c-0.35,0.34-0.78,0.51-1.27,0.51c-0.51,0-0.94-0.17-1.29-0.51
			C172.03,169.94,171.86,169.43,171.86,168.75z M175.16,194.35h-3.05v-20.14h3.05V194.35z"/>
		<path class="st2" d="M199.02,184.26c0,3.28-0.83,5.85-2.48,7.69c-1.65,1.84-3.94,2.77-6.86,2.77c-1.8,0-3.4-0.42-4.8-1.27
			c-1.4-0.85-2.48-2.06-3.24-3.64c-0.76-1.58-1.14-3.43-1.14-5.55c0-3.28,0.82-5.84,2.46-7.67c1.64-1.83,3.92-2.75,6.84-2.75
			c2.82,0,5.06,0.94,6.72,2.81C198.19,178.52,199.02,181.06,199.02,184.26z M183.67,184.26c0,2.57,0.52,4.53,1.54,5.88
			c1.03,1.35,2.54,2.02,4.54,2.02c2,0,3.51-0.67,4.55-2.01c1.04-1.34,1.55-3.31,1.55-5.89c0-2.56-0.52-4.51-1.55-5.84
			c-1.04-1.33-2.56-1.99-4.59-1.99c-2,0-3.5,0.66-4.52,1.97C184.18,179.71,183.67,181.66,183.67,184.26z"/>
		<path class="st2" d="M218.15,194.35v-13.03c0-1.64-0.37-2.87-1.12-3.68c-0.75-0.81-1.92-1.21-3.51-1.21
			c-2.11,0-3.65,0.57-4.63,1.71c-0.98,1.14-1.47,3.02-1.47,5.64v10.57h-3.05v-20.14h2.48l0.5,2.76h0.15
			c0.63-0.99,1.5-1.76,2.63-2.31c1.13-0.55,2.38-0.82,3.77-0.82c2.43,0,4.25,0.59,5.48,1.76c1.23,1.17,1.84,3.04,1.84,5.62v13.14
			H218.15z"/>
		<path class="st2" d="M239.86,194.35l-0.61-2.87h-0.15c-1,1.26-2.01,2.12-3.01,2.56c-1,0.45-2.25,0.67-3.74,0.67
			c-2,0-3.56-0.51-4.7-1.54c-1.13-1.03-1.7-2.49-1.7-4.39c0-4.07,3.25-6.2,9.76-6.4l3.42-0.11v-1.25c0-1.58-0.34-2.75-1.02-3.5
			c-0.68-0.75-1.77-1.13-3.26-1.13c-1.68,0-3.58,0.51-5.7,1.54l-0.94-2.33c0.99-0.54,2.08-0.96,3.26-1.27
			c1.18-0.31,2.37-0.46,3.56-0.46c2.4,0,4.18,0.53,5.34,1.6c1.16,1.07,1.74,2.78,1.74,5.13v13.75H239.86z M232.97,192.2
			c1.9,0,3.39-0.52,4.48-1.56c1.08-1.04,1.63-2.5,1.63-4.37v-1.82l-3.05,0.13c-2.43,0.09-4.18,0.46-5.25,1.13
			c-1.07,0.67-1.61,1.71-1.61,3.12c0,1.1,0.33,1.94,1,2.52C230.83,191.91,231.77,192.2,232.97,192.2z"/>
		<path class="st2" d="M251.46,194.35h-3.05v-28.6h3.05V194.35z"/>
	</g>
	<g>
		<path class="st2" d="M270.4,193.14h-0.1c-0.84,1.22-2.1,1.84-3.78,1.84c-1.58,0-2.8-0.54-3.68-1.62
			c-0.88-1.08-1.31-2.61-1.31-4.59c0-1.99,0.44-3.53,1.32-4.63c0.88-1.1,2.1-1.65,3.67-1.65c1.63,0,2.89,0.59,3.76,1.78h0.14
			l-0.08-0.87l-0.04-0.85v-4.9h1.82v17.1h-1.48L270.4,193.14z M266.76,193.44c1.25,0,2.15-0.34,2.71-1.02
			c0.56-0.68,0.84-1.77,0.84-3.28v-0.38c0-1.71-0.28-2.93-0.85-3.65c-0.57-0.73-1.47-1.09-2.72-1.09c-1.07,0-1.89,0.42-2.46,1.25
			c-0.57,0.83-0.85,2.01-0.85,3.52c0,1.54,0.28,2.7,0.85,3.48C264.84,193.05,265.66,193.44,266.76,193.44z"/>
		<path class="st2" d="M281.09,194.97c-1.78,0-3.19-0.54-4.22-1.63c-1.03-1.08-1.54-2.59-1.54-4.52c0-1.94,0.48-3.48,1.43-4.63
			s2.24-1.71,3.85-1.71c1.51,0,2.7,0.5,3.58,1.49c0.88,0.99,1.32,2.3,1.32,3.93v1.15h-8.3c0.04,1.41,0.39,2.49,1.07,3.22
			c0.68,0.73,1.63,1.1,2.86,1.1c1.3,0,2.58-0.27,3.85-0.81v1.63c-0.64,0.28-1.25,0.48-1.83,0.6
			C282.59,194.91,281.9,194.97,281.09,194.97z M280.59,184.01c-0.97,0-1.74,0.32-2.31,0.95c-0.58,0.63-0.91,1.5-1.02,2.62h6.3
			c0-1.15-0.26-2.03-0.77-2.64C282.28,184.32,281.55,184.01,280.59,184.01z"/>
		<path class="st2" d="M296.4,191.47c0,1.12-0.42,1.99-1.25,2.59c-0.84,0.61-2.01,0.91-3.52,0.91c-1.6,0-2.84-0.25-3.74-0.76v-1.69
			c0.58,0.29,1.2,0.52,1.86,0.69c0.66,0.17,1.3,0.25,1.92,0.25c0.95,0,1.69-0.15,2.2-0.46c0.51-0.3,0.77-0.77,0.77-1.39
			c0-0.47-0.2-0.87-0.61-1.2c-0.41-0.33-1.2-0.73-2.38-1.18c-1.12-0.42-1.92-0.78-2.39-1.09c-0.47-0.31-0.82-0.66-1.06-1.06
			c-0.23-0.4-0.35-0.87-0.35-1.42c0-0.98,0.4-1.76,1.2-2.32c0.8-0.57,1.89-0.85,3.29-0.85c1.3,0,2.57,0.26,3.8,0.79l-0.65,1.48
			c-1.21-0.5-2.3-0.75-3.29-0.75c-0.86,0-1.52,0.14-1.96,0.41c-0.44,0.27-0.66,0.65-0.66,1.12c0,0.32,0.08,0.6,0.25,0.82
			c0.16,0.23,0.43,0.44,0.8,0.65c0.37,0.21,1.07,0.5,2.11,0.89c1.43,0.52,2.39,1.04,2.9,1.57C296.15,190,296.4,190.67,296.4,191.47z
			"/>
	</g>
	<g>
		<path class="st2" d="M63.68,256.09v10.34h-2.89v-24.87h6.82c3.05,0,5.3,0.58,6.76,1.75c1.46,1.17,2.19,2.93,2.19,5.27
			c0,3.29-1.67,5.51-5,6.67l6.75,11.18h-3.42l-6.02-10.34H63.68z M63.68,253.6h3.96c2.04,0,3.54-0.41,4.49-1.22
			c0.95-0.81,1.43-2.03,1.43-3.65c0-1.64-0.48-2.83-1.45-3.56c-0.97-0.73-2.53-1.09-4.67-1.09h-3.76V253.6z"/>
		<path class="st2" d="M81.66,242.73c0-0.65,0.16-1.12,0.48-1.42c0.32-0.3,0.71-0.45,1.19-0.45c0.45,0,0.84,0.15,1.17,0.46
			c0.33,0.31,0.49,0.78,0.49,1.41s-0.16,1.11-0.49,1.42c-0.33,0.31-0.72,0.47-1.17,0.47c-0.48,0-0.87-0.16-1.19-0.47
			C81.82,243.84,81.66,243.37,81.66,242.73z M84.72,266.43h-2.82v-18.64h2.82V266.43z"/>
		<path class="st2" d="M94.79,266.43l-7.08-18.64h3.03l4.01,11.06c0.91,2.59,1.44,4.26,1.6,5.04h0.14c0.12-0.6,0.52-1.84,1.18-3.73
			c0.66-1.89,2.15-6.01,4.46-12.36h3.03l-7.08,18.64H94.79z"/>
		<path class="st2" d="M107.92,242.73c0-0.65,0.16-1.12,0.48-1.42c0.32-0.3,0.71-0.45,1.19-0.45c0.45,0,0.85,0.15,1.17,0.46
			c0.33,0.31,0.49,0.78,0.49,1.41s-0.16,1.11-0.49,1.42c-0.33,0.31-0.72,0.47-1.17,0.47c-0.48,0-0.87-0.16-1.19-0.47
			C108.08,243.84,107.92,243.37,107.92,242.73z M110.98,266.43h-2.82v-18.64h2.82V266.43z"/>
		<path class="st2" d="M124.85,266.77c-2.76,0-4.93-0.84-6.52-2.52c-1.59-1.68-2.39-4.01-2.39-6.99c0-3.01,0.74-5.39,2.22-7.16
			c1.48-1.77,3.47-2.65,5.96-2.65c2.34,0,4.18,0.77,5.55,2.31c1.36,1.54,2.04,3.56,2.04,6.08v1.79h-12.84
			c0.06,2.19,0.61,3.85,1.66,4.98c1.05,1.13,2.53,1.7,4.43,1.7c2.01,0,3.99-0.42,5.95-1.26v2.52c-1,0.43-1.94,0.74-2.83,0.93
			C127.18,266.67,126.1,266.77,124.85,266.77z M124.08,249.81c-1.5,0-2.69,0.49-3.58,1.46c-0.89,0.97-1.42,2.33-1.57,4.05h9.75
			c0-1.78-0.4-3.14-1.19-4.09C126.69,250.28,125.55,249.81,124.08,249.81z M126.07,245.32h-1.87c-0.74-0.59-1.61-1.43-2.62-2.52
			c-1.01-1.09-1.74-1.99-2.19-2.7v-0.36h3.45c0.36,0.78,0.87,1.69,1.51,2.71c0.65,1.03,1.22,1.84,1.72,2.44V245.32z"/>
		<path class="st2" d="M145.02,247.45c0.83,0,1.57,0.07,2.23,0.2l-0.39,2.62c-0.77-0.17-1.45-0.26-2.04-0.26
			c-1.51,0-2.8,0.61-3.87,1.84c-1.07,1.22-1.61,2.75-1.61,4.58v10h-2.82v-18.64h2.33l0.32,3.45h0.14c0.69-1.21,1.53-2.15,2.5-2.81
			C142.78,247.77,143.85,247.45,145.02,247.45z"/>
		<path class="st2" d="M158.61,266.77c-2.76,0-4.93-0.84-6.52-2.52c-1.59-1.68-2.39-4.01-2.39-6.99c0-3.01,0.74-5.39,2.22-7.16
			c1.48-1.77,3.47-2.65,5.96-2.65c2.34,0,4.18,0.77,5.55,2.31c1.36,1.54,2.04,3.56,2.04,6.08v1.79h-12.84
			c0.06,2.19,0.61,3.85,1.66,4.98c1.05,1.13,2.53,1.7,4.43,1.7c2.01,0,3.99-0.42,5.95-1.26v2.52c-1,0.43-1.94,0.74-2.83,0.93
			C160.94,266.67,159.87,266.77,158.61,266.77z M157.84,249.81c-1.5,0-2.69,0.49-3.58,1.46c-0.89,0.97-1.42,2.33-1.57,4.05h9.75
			c0-1.78-0.4-3.14-1.19-4.09C160.45,250.28,159.32,249.81,157.84,249.81z"/>
		<path class="st2" d="M190.76,266.43l-8.44-22.05h-0.14c0.16,1.75,0.24,3.82,0.24,6.23v15.82h-2.67v-24.87h4.35l7.88,20.51h0.14
			l7.94-20.51h4.32v24.87h-2.89v-16.02c0-1.84,0.08-3.83,0.24-5.99h-0.14l-8.51,22.01H190.76z"/>
		<path class="st2" d="M222.25,266.43l-0.56-2.65h-0.14c-0.93,1.17-1.86,1.96-2.78,2.37c-0.93,0.41-2.08,0.62-3.46,0.62
			c-1.85,0-3.3-0.48-4.35-1.43c-1.05-0.95-1.57-2.31-1.57-4.07c0-3.76,3.01-5.74,9.03-5.92l3.16-0.1v-1.16
			c0-1.46-0.32-2.54-0.94-3.24c-0.63-0.7-1.64-1.05-3.02-1.05c-1.55,0-3.31,0.48-5.27,1.43l-0.87-2.16c0.92-0.5,1.92-0.89,3.02-1.17
			c1.1-0.28,2.19-0.43,3.29-0.43c2.22,0,3.87,0.49,4.94,1.48c1.07,0.99,1.61,2.57,1.61,4.75v12.72H222.25z M215.87,264.44
			c1.76,0,3.14-0.48,4.14-1.45c1-0.96,1.51-2.31,1.51-4.05v-1.68l-2.82,0.12c-2.25,0.08-3.86,0.43-4.86,1.05
			c-0.99,0.62-1.49,1.58-1.49,2.88c0,1.02,0.31,1.8,0.93,2.33C213.89,264.17,214.76,264.44,215.87,264.44z"/>
		<path class="st2" d="M232.98,266.43h-2.82v-26.47h2.82V266.43z"/>
		<path class="st2" d="M247.64,247.48c2.45,0,4.35,0.84,5.71,2.51c1.35,1.67,2.03,4.04,2.03,7.1c0,3.06-0.68,5.44-2.05,7.14
			c-1.37,1.7-3.26,2.54-5.69,2.54c-1.21,0-2.32-0.22-3.33-0.67c-1-0.45-1.84-1.14-2.53-2.07h-0.2l-0.6,2.4h-2.02v-26.47h2.82v6.43
			c0,1.44-0.05,2.73-0.14,3.88h0.14C243.1,248.41,245.06,247.48,247.64,247.48z M247.23,249.84c-1.93,0-3.32,0.55-4.17,1.66
			c-0.85,1.11-1.28,2.97-1.28,5.59c0,2.62,0.44,4.49,1.31,5.62c0.87,1.13,2.27,1.69,4.2,1.69c1.74,0,3.03-0.63,3.88-1.9
			c0.85-1.27,1.28-3.08,1.28-5.45c0-2.43-0.43-4.24-1.28-5.43C250.33,250.44,249.01,249.84,247.23,249.84z"/>
		<path class="st2" d="M271.78,266.43l-0.56-2.65h-0.14c-0.93,1.17-1.86,1.96-2.78,2.37c-0.93,0.41-2.08,0.62-3.46,0.62
			c-1.85,0-3.3-0.48-4.35-1.43c-1.05-0.95-1.57-2.31-1.57-4.07c0-3.76,3.01-5.74,9.03-5.92l3.16-0.1v-1.16
			c0-1.46-0.32-2.54-0.94-3.24c-0.63-0.7-1.64-1.05-3.02-1.05c-1.55,0-3.31,0.48-5.27,1.43l-0.87-2.16c0.92-0.5,1.92-0.89,3.02-1.17
			c1.1-0.28,2.19-0.43,3.29-0.43c2.22,0,3.87,0.49,4.94,1.48c1.07,0.99,1.61,2.57,1.61,4.75v12.72H271.78z M265.4,264.44
			c1.76,0,3.14-0.48,4.14-1.45c1-0.96,1.51-2.31,1.51-4.05v-1.68l-2.82,0.12c-2.25,0.08-3.86,0.43-4.86,1.05
			c-0.99,0.62-1.49,1.58-1.49,2.88c0,1.02,0.31,1.8,0.93,2.33C263.42,264.17,264.29,264.44,265.4,264.44z"/>
		<path class="st2" d="M279.45,242.73c0-0.65,0.16-1.12,0.48-1.42c0.32-0.3,0.71-0.45,1.19-0.45c0.45,0,0.85,0.15,1.17,0.46
			s0.49,0.78,0.49,1.41s-0.16,1.11-0.49,1.42c-0.33,0.31-0.72,0.47-1.17,0.47c-0.48,0-0.87-0.16-1.19-0.47
			C279.61,243.84,279.45,243.37,279.45,242.73z M282.51,266.43h-2.82v-18.64h2.82V266.43z"/>
		<path class="st2" d="M296.38,266.77c-2.76,0-4.93-0.84-6.52-2.52c-1.59-1.68-2.39-4.01-2.39-6.99c0-3.01,0.74-5.39,2.22-7.16
			c1.48-1.77,3.47-2.65,5.96-2.65c2.34,0,4.18,0.77,5.55,2.31c1.36,1.54,2.04,3.56,2.04,6.08v1.79h-12.84
			c0.06,2.19,0.61,3.85,1.66,4.98c1.05,1.13,2.53,1.7,4.43,1.7c2.01,0,3.99-0.42,5.95-1.26v2.52c-1,0.43-1.94,0.74-2.83,0.93
			C298.71,266.67,297.63,266.77,296.38,266.77z M295.61,249.81c-1.5,0-2.69,0.49-3.58,1.46c-0.89,0.97-1.42,2.33-1.57,4.05h9.75
			c0-1.78-0.4-3.14-1.19-4.09C298.22,250.28,297.08,249.81,295.61,249.81z"/>
	</g>
	<path class="st2" d="M8.87,265.16h-0.1c-0.84,1.22-2.1,1.84-3.78,1.84c-1.58,0-2.8-0.54-3.68-1.62C0.44,264.31,0,262.78,0,260.79
		s0.44-3.53,1.32-4.63c0.88-1.1,2.1-1.65,3.67-1.65c1.63,0,2.89,0.59,3.76,1.78h0.14l-0.08-0.87l-0.04-0.85v-4.9h1.82v17.1H9.11
		L8.87,265.16z M5.22,265.47c1.25,0,2.15-0.34,2.71-1.02s0.84-1.77,0.84-3.28v-0.38c0-1.71-0.28-2.93-0.85-3.65
		c-0.57-0.73-1.47-1.09-2.72-1.09c-1.07,0-1.89,0.42-2.46,1.25c-0.57,0.83-0.85,2.01-0.85,3.52c0,1.54,0.28,2.7,0.85,3.48
		C3.3,265.08,4.13,265.47,5.22,265.47z"/>
	<path class="st2" d="M19.55,267c-1.78,0-3.19-0.54-4.22-1.63c-1.03-1.08-1.54-2.59-1.54-4.52c0-1.94,0.48-3.48,1.43-4.63
		c0.96-1.14,2.24-1.71,3.85-1.71c1.51,0,2.7,0.5,3.58,1.49c0.88,0.99,1.32,2.3,1.32,3.93v1.15h-8.3c0.04,1.41,0.39,2.49,1.07,3.22
		c0.68,0.73,1.63,1.1,2.86,1.1c1.3,0,2.58-0.27,3.85-0.81v1.63c-0.65,0.28-1.26,0.48-1.83,0.6C21.06,266.94,20.37,267,19.55,267z
		 M19.06,256.04c-0.97,0-1.74,0.31-2.31,0.95c-0.58,0.63-0.91,1.5-1.02,2.62h6.3c0-1.15-0.26-2.03-0.77-2.64
		C20.74,256.35,20.01,256.04,19.06,256.04z"/>
	<g>
		<path class="st2" d="M34.77,266.78h-1.82v-17.1h1.82V266.78z"/>
		<path class="st2" d="M46.04,266.78l-0.36-1.71h-0.09c-0.6,0.75-1.2,1.27-1.8,1.53c-0.6,0.27-1.34,0.4-2.24,0.4
			c-1.19,0-2.13-0.31-2.81-0.92c-0.68-0.62-1.02-1.49-1.02-2.63c0-2.43,1.95-3.71,5.84-3.82l2.04-0.07v-0.75
			c0-0.95-0.2-1.64-0.61-2.09c-0.41-0.45-1.06-0.68-1.95-0.68c-1,0-2.14,0.31-3.41,0.92l-0.56-1.4c0.59-0.32,1.24-0.58,1.95-0.76
			c0.71-0.18,1.42-0.27,2.13-0.27c1.44,0,2.5,0.32,3.19,0.96c0.69,0.64,1.04,1.66,1.04,3.07v8.22H46.04z M41.92,265.49
			c1.14,0,2.03-0.31,2.68-0.93s0.97-1.49,0.97-2.62v-1.09l-1.82,0.08c-1.45,0.05-2.5,0.28-3.14,0.68c-0.64,0.4-0.96,1.02-0.96,1.86
			c0,0.66,0.2,1.16,0.6,1.51C40.64,265.32,41.2,265.49,41.92,265.49z"/>
	</g>
</g>
</svg>
