<?xml version="1.0" encoding="utf-8"?>
<!-- Generator: Adobe Illustrator 24.1.2, SVG Export Plug-In . SVG Version: 6.00 Build 0)  -->
<svg version="1.1" id="Layer_1" focusable="false" xmlns="http://www.w3.org/2000/svg" xmlns:xlink="http://www.w3.org/1999/xlink"
	 x="0px" y="0px" viewBox="0 0 576 512" style="enable-background:new 0 0 576 512;" xml:space="preserve">
<style type="text/css">
	.st0{fill:#FFFFFF;}
</style>
<path class="st0" d="M562.1,383.9c-21.5-2.4-42.1-10.5-57.9-22.9c-14.1-11.1-34.2-11.3-48.2,0c-37.9,30.4-107.2,30.4-145.7-1.5
	c-13.5-11.2-33-9.1-46.7,1.8c-38,30.1-106.9,30-145.2-1.7c-13.5-11.2-33.3-8.9-47.1,2c-15.5,12.2-36,20.1-57.7,22.4
	C5.7,384.8,0,391.8,0,399.7v32.2c0,9.1,7.6,16.8,16.7,16c28.8-2.5,56.1-11.4,79.4-25.9c56.5,34.6,137,34.1,192,0
	c56.5,34.6,137,34.1,192,0c23.3,14.2,50.9,23.3,79.1,25.8c9.1,0.8,16.7-6.9,16.7-16v-31.6C576,392.2,570.2,384.8,562.1,383.9z
	 M562.1,239.9c-21.5-2.4-42.1-10.5-57.9-22.9c-14.1-11.1-34.2-11.3-48.2,0c-37.9,30.4-107.2,30.4-145.7-1.5
	c-13.5-11.2-33-9.1-46.7,1.8c-38,30.1-106.9,30-145.2-1.7c-13.5-11.2-33.3-8.9-47.1,2c-15.5,12.2-36,20.1-57.7,22.4
	C5.7,240.8,0,247.8,0,255.7v32.2c0,9.1,7.6,16.8,16.7,16c28.8-2.5,56.1-11.4,79.4-25.9c56.5,34.6,137,34.1,192,0
	c56.5,34.6,137,34.1,192,0c23.3,14.2,50.9,23.3,79.1,25.8c9.1,0.8,16.7-6.9,16.7-16v-31.6C576,248.2,570.2,240.8,562.1,239.9
	L562.1,239.9z M562.1,95.9C540.6,93.4,520,85.4,504.2,73C490.1,61.9,470,61.7,456,73c-37.9,30.4-107.2,30.4-145.7-1.5
	c-13.5-11.2-33-9.1-46.7,1.8c-38,30.1-106.9,30-145.2-1.7c-13.5-11.2-33.3-8.9-47.1,2C55.8,85.8,35.3,93.7,13.6,96
	C5.7,96.8,0,103.8,0,111.7v32.2c0,9.1,7.6,16.8,16.7,16c28.8-2.5,56.1-11.4,79.4-25.9c56.5,34.6,137,34.1,192,0
	c56.5,34.6,137,34.1,192,0c23.3,14.2,50.9,23.3,79.1,25.8c9.1,0.8,16.7-6.9,16.7-16v-31.6C576,104.2,570.2,96.8,562.1,95.9
	L562.1,95.9z"/>
</svg>
